HIERARCHY
ROOT Joint1
{
	OFFSET 0.000000 0.000000 0.000000
	CHANNELS 6 Xposition Yposition Zposition Xrotation Yrotation Zrotation
	JOINT Joint2
	{
		OFFSET -0.000000 0.000000 1.456275
		CHANNELS 6 Xposition Yposition Zposition Xrotation Yrotation Zrotation
		JOINT Joint3
		{
			OFFSET -0.000000 0.000002 1.471446
			CHANNELS 6 Xposition Yposition Zposition Xrotation Yrotation Zrotation
			JOINT Joint4
			{
				OFFSET 0.625745 0.000000 0.917755
				CHANNELS 6 Xposition Yposition Zposition Xrotation Yrotation Zrotation
				JOINT Joint5
				{
					OFFSET -0.629534 0.000001 0.940221
					CHANNELS 6 Xposition Yposition Zposition Xrotation Yrotation Zrotation
					JOINT Joint6
					{
						OFFSET -0.000001 0.113772 1.960660
						CHANNELS 6 Xposition Yposition Zposition Xrotation Yrotation Zrotation
						JOINT Joint7
						{
							OFFSET -0.669733 -0.113771 0.388340
							CHANNELS 6 Xposition Yposition Zposition Xrotation Yrotation Zrotation
							End Site
							{
								OFFSET 0.005509 0.005509 0.438980
							}
						}
					}
				}
			}
		}
	}
}
MOTION
Frames: 14
Frame Time: 0.041667
0.000000 0.000000 0.000000 -0.000000 1.019410 1.731172 -0.000000 0.000000 1.456275 -0.000009 -90.812092 0.000005 -0.000000 0.000002 1.471445 -0.000002 -1.133464 -52.805166 0.625745 0.000000 0.917755 0.000003 159.468060 -0.000000 -0.629534 0.000001 0.940221 0.000001 1.709736 22.182190 -0.000001 0.113772 1.960660 -88.303889 70.616868 -0.000004 -0.669733 -0.113771 0.388340 -0.421820 1.573118 -28.796767 
0.000000 0.000000 0.000000 -0.000000 1.019410 1.729892 -0.000000 0.000000 1.456275 -0.000011 -90.778378 0.000004 -0.000000 0.000002 1.471446 -0.000002 -1.133464 -52.766336 0.625745 0.000000 0.917755 0.000002 159.450069 -0.000005 -0.629534 0.000001 0.940221 0.000000 1.709737 22.165856 -0.000001 0.113772 1.960660 -88.303903 70.631116 -0.000002 -0.669733 -0.113771 0.388339 -0.419768 1.573716 -28.676358 
0.000000 0.000000 0.000000 -0.000000 1.019410 1.727660 -0.000000 0.000000 1.456275 -0.000001 -90.719536 0.000001 -0.000000 0.000002 1.471445 -0.000002 -1.133464 -52.698581 0.625745 0.000001 0.917755 0.000004 159.418692 -0.000000 -0.629534 0.000001 0.940221 -0.000000 1.709737 22.137357 -0.000001 0.113772 1.960660 -88.303896 70.655964 -0.000004 -0.669733 -0.113771 0.388340 -0.416187 1.574771 -28.466268 
0.000000 0.000000 0.000000 -0.000000 1.019410 1.724392 -0.000000 0.000000 1.456275 -0.000001 -90.633441 0.000007 -0.000000 0.000002 1.471446 -0.000002 -1.133464 -52.599437 0.625745 0.000000 0.917755 0.000003 159.372752 0.000002 -0.629534 0.000001 0.940221 0.000000 1.709738 22.095648 -0.000002 0.113772 1.960660 -88.303896 70.692321 -0.000003 -0.669733 -0.113771 0.388340 -0.410956 1.576339 -28.158806 
0.000000 0.000000 0.000000 -0.000000 1.019410 1.720008 -0.000000 0.000000 1.456275 -0.000012 -90.517929 0.000009 -0.000000 0.000002 1.471446 -0.000002 -1.133464 -52.466402 0.625745 0.000000 0.917755 0.000003 159.311130 -0.000000 -0.629534 0.000001 0.940221 -0.000001 1.709736 22.039702 -0.000001 0.113772 1.960660 -88.303889 70.741116 0.000003 -0.669733 -0.113771 0.388340 -0.403952 1.578486 -27.746300 
0.000000 0.000000 0.000000 -0.000000 1.019410 1.714427 -0.000000 0.000000 1.456275 -0.000010 -90.370834 0.000004 -0.000000 0.000002 1.471446 -0.000002 -1.133464 -52.297007 0.625745 0.000000 0.917755 0.000003 159.232665 0.000002 -0.629534 0.000001 0.940221 -0.000001 1.709739 21.968455 -0.000001 0.113772 1.960661 -88.303896 70.803244 -0.000002 -0.669733 -0.113771 0.388340 -0.395056 1.581293 -27.221046 
0.000000 0.000000 0.000000 -0.000000 1.019410 1.707565 -0.000000 0.000000 1.456275 -0.000011 -90.190012 0.000018 -0.000000 0.000002 1.471446 -0.000002 -1.133464 -52.088785 0.625745 0.000000 0.917755 0.000002 159.136209 0.000003 -0.629534 0.000001 0.940221 0.000000 1.709736 21.880871 -0.000001 0.113772 1.960661 -88.303896 70.879619 0.000001 -0.669733 -0.113771 0.388341 -0.384153 1.584855 -26.575361 
0.000000 0.000000 0.000000 -0.000000 1.019410 1.699342 -0.000000 -0.000000 1.456275 0.000004 -89.973317 0.000021 -0.000000 0.000002 1.471446 -0.000002 -1.133464 -51.839240 0.625745 0.000001 0.917755 0.000003 159.020601 -0.000001 -0.629534 0.000001 0.940221 -0.000003 1.709735 21.775913 -0.000001 0.113772 1.960660 -88.303903 70.971136 -0.000006 -0.669733 -0.113771 0.388340 -0.371142 1.589285 -25.801552 
0.000000 0.000000 0.000000 -0.000000 1.019410 1.689675 -0.000000 -0.000000 1.456275 0.000011 -89.718585 -0.000011 -0.000000 0.000002 1.471446 -0.000002 -1.133464 -51.545897 0.625745 0.000000 0.917755 0.000002 158.884721 -0.000000 -0.629534 0.000001 0.940221 0.000001 1.709738 21.652535 -0.000001 0.113772 1.960660 -88.303889 71.078726 -0.000004 -0.669733 -0.113771 0.388341 -0.355926 1.594717 -24.891931 
0.000000 0.000000 0.000000 -0.000000 1.019410 1.678484 -0.000000 0.000000 1.456275 0.000013 -89.423671 0.000004 -0.000000 0.000002 1.471446 -0.000002 -1.133464 -51.206273 0.625745 0.000000 0.917755 0.000002 158.727408 -0.000001 -0.629534 0.000001 0.940221 -0.000001 1.709737 21.509685 -0.000001 0.113772 1.960660 -88.303896 71.203288 -0.000003 -0.669733 -0.113771 0.388340 -0.338420 1.601307 -23.838801 
0.000000 0.000000 0.000000 -0.000000 1.019410 1.665685 -0.000000 0.000000 1.456275 0.000007 -89.086417 -0.000004 -0.000000 0.000002 1.471446 -0.000002 -1.133464 -50.817892 0.625744 0.000000 0.917755 0.000003 158.547501 0.000000 -0.629534 0.000001 0.940221 0.000001 1.709735 21.346334 -0.000001 0.113772 1.960661 -88.303896 71.345731 -0.000005 -0.669733 -0.113771 0.388341 -0.318554 1.609235 -22.634480 
0.000000 0.000000 0.000000 -0.000000 1.019410 1.651199 -0.000000 0.000000 1.456275 0.000004 -88.704664 -0.000002 -0.000000 0.000002 1.471446 -0.000002 -1.133464 -50.378280 0.625745 0.000000 0.917755 0.000004 158.343852 -0.000001 -0.629534 0.000001 0.940221 -0.000000 1.709734 21.161432 -0.000001 0.113772 1.960661 -88.303889 71.506972 -0.000001 -0.669733 -0.113771 0.388340 -0.296273 1.618711 -21.271270 
0.000000 0.000000 0.000000 -0.000000 1.019410 1.634942 -0.000000 -0.000000 1.456275 0.000003 -88.276274 0.000001 -0.000000 0.000002 1.471446 -0.000002 -1.133464 -49.884946 0.625745 0.000000 0.917755 0.000003 158.115328 -0.000001 -0.629534 0.000001 0.940221 0.000000 1.709737 20.953929 -0.000001 0.113772 1.960660 -88.303896 71.687903 -0.000010 -0.669733 -0.113771 0.388341 -0.271545 1.629972 -19.741490 
0.000000 0.000000 0.000000 -0.000000 1.019410 1.616946 -0.000000 0.000000 1.456275 -0.000002 -87.802034 0.000000 -0.000000 0.000002 1.471446 -0.000002 -1.133464 -49.338824 0.625745 0.000000 0.917755 0.000002 157.862351 -0.000001 -0.629534 0.000001 0.940221 -0.000000 1.709734 20.724230 -0.000001 0.113773 1.960660 -88.303889 71.888199 -0.000007 -0.669733 -0.113771 0.388341 -0.244534 1.643202 -18.048022 
